<mxfile host="Electron" modified="2024-06-17T16:57:42.043Z" agent="Mozilla/5.0 (Windows NT 10.0; Win64; x64) AppleWebKit/537.36 (KHTML, like Gecko) draw.io/24.5.3 Chrome/124.0.6367.207 Electron/30.0.6 Safari/537.36" etag="7zwNRzTPEaPqnkhah6bI" version="24.5.3" type="device">
  <diagram id="C5RBs43oDa-KdzZeNtuy" name="Page-1">
    <mxGraphModel dx="1257" dy="760" grid="0" gridSize="10" guides="1" tooltips="1" connect="1" arrows="1" fold="1" page="1" pageScale="1" pageWidth="827" pageHeight="1169" background="#B3FFEB" math="0" shadow="1">
      <root>
        <object label="" id="WIyWlLk6GJQsqaUBKTNV-0">
          <mxCell />
        </object>
        <mxCell id="WIyWlLk6GJQsqaUBKTNV-1" parent="WIyWlLk6GJQsqaUBKTNV-0" />
        <mxCell id="YErlfjkkTAqK8pvpZ7J_-2" value="" style="edgeStyle=orthogonalEdgeStyle;rounded=0;orthogonalLoop=1;jettySize=auto;html=1;labelBackgroundColor=none;fontColor=default;strokeColor=#182E3E;" edge="1" parent="WIyWlLk6GJQsqaUBKTNV-1" source="YErlfjkkTAqK8pvpZ7J_-0" target="YErlfjkkTAqK8pvpZ7J_-1">
          <mxGeometry relative="1" as="geometry" />
        </mxCell>
        <mxCell id="YErlfjkkTAqK8pvpZ7J_-37" value="" style="edgeStyle=orthogonalEdgeStyle;rounded=0;orthogonalLoop=1;jettySize=auto;html=1;exitX=0.5;exitY=1;exitDx=0;exitDy=0;labelBackgroundColor=none;fontColor=default;strokeColor=#182E3E;" edge="1" parent="WIyWlLk6GJQsqaUBKTNV-1" source="YErlfjkkTAqK8pvpZ7J_-36" target="YErlfjkkTAqK8pvpZ7J_-0">
          <mxGeometry relative="1" as="geometry">
            <mxPoint x="390" y="200" as="sourcePoint" />
            <mxPoint x="440" y="210" as="targetPoint" />
          </mxGeometry>
        </mxCell>
        <mxCell id="YErlfjkkTAqK8pvpZ7J_-0" value="RESET CONTADOR MEDIO" style="rounded=1;whiteSpace=wrap;html=1;labelBackgroundColor=none;fillColor=#F5AB50;strokeColor=#909090;fontColor=#1A1A1A;" vertex="1" parent="WIyWlLk6GJQsqaUBKTNV-1">
          <mxGeometry x="354" y="220" width="120" height="60" as="geometry" />
        </mxCell>
        <mxCell id="YErlfjkkTAqK8pvpZ7J_-1" value="RESET CONTADOR INTERNO" style="whiteSpace=wrap;html=1;rounded=1;labelBackgroundColor=none;fillColor=#F5AB50;strokeColor=#909090;fontColor=#1A1A1A;" vertex="1" parent="WIyWlLk6GJQsqaUBKTNV-1">
          <mxGeometry x="354" y="300" width="120" height="60" as="geometry" />
        </mxCell>
        <mxCell id="YErlfjkkTAqK8pvpZ7J_-6" value="" style="edgeStyle=orthogonalEdgeStyle;rounded=0;orthogonalLoop=1;jettySize=auto;html=1;labelBackgroundColor=none;fontColor=default;strokeColor=#182E3E;" edge="1" parent="WIyWlLk6GJQsqaUBKTNV-1" source="YErlfjkkTAqK8pvpZ7J_-3" target="YErlfjkkTAqK8pvpZ7J_-5">
          <mxGeometry relative="1" as="geometry" />
        </mxCell>
        <mxCell id="YErlfjkkTAqK8pvpZ7J_-3" value="DECREMENTAR CONTADOR INTERNO&amp;nbsp;" style="whiteSpace=wrap;html=1;rounded=1;labelBackgroundColor=none;fillColor=#F5AB50;strokeColor=#909090;fontColor=#1A1A1A;" vertex="1" parent="WIyWlLk6GJQsqaUBKTNV-1">
          <mxGeometry x="354" y="380" width="120" height="60" as="geometry" />
        </mxCell>
        <mxCell id="YErlfjkkTAqK8pvpZ7J_-19" value="" style="edgeStyle=orthogonalEdgeStyle;rounded=0;orthogonalLoop=1;jettySize=auto;html=1;labelBackgroundColor=none;fontColor=default;strokeColor=#182E3E;" edge="1" parent="WIyWlLk6GJQsqaUBKTNV-1" source="YErlfjkkTAqK8pvpZ7J_-5" target="YErlfjkkTAqK8pvpZ7J_-18">
          <mxGeometry relative="1" as="geometry" />
        </mxCell>
        <mxCell id="YErlfjkkTAqK8pvpZ7J_-22" value="SI" style="edgeLabel;html=1;align=center;verticalAlign=middle;resizable=0;points=[];labelBackgroundColor=none;fontColor=#1A1A1A;" vertex="1" connectable="0" parent="YErlfjkkTAqK8pvpZ7J_-19">
          <mxGeometry x="0.1511" relative="1" as="geometry">
            <mxPoint x="8" y="-1" as="offset" />
          </mxGeometry>
        </mxCell>
        <mxCell id="YErlfjkkTAqK8pvpZ7J_-40" value="" style="edgeStyle=orthogonalEdgeStyle;rounded=0;orthogonalLoop=1;jettySize=auto;html=1;strokeColor=#182E3E;fontColor=#1A1A1A;" edge="1" parent="WIyWlLk6GJQsqaUBKTNV-1" source="YErlfjkkTAqK8pvpZ7J_-5" target="YErlfjkkTAqK8pvpZ7J_-18">
          <mxGeometry relative="1" as="geometry" />
        </mxCell>
        <mxCell id="YErlfjkkTAqK8pvpZ7J_-5" value="CONTADOR INTERNO = 0" style="rhombus;whiteSpace=wrap;html=1;rounded=1;rotation=0;labelBackgroundColor=none;fillColor=#F5AB50;strokeColor=#909090;fontColor=#1A1A1A;" vertex="1" parent="WIyWlLk6GJQsqaUBKTNV-1">
          <mxGeometry x="326" y="460" width="176" height="80" as="geometry" />
        </mxCell>
        <mxCell id="YErlfjkkTAqK8pvpZ7J_-7" value="" style="endArrow=classic;html=1;rounded=0;exitX=0.028;exitY=0.488;exitDx=0;exitDy=0;exitPerimeter=0;entryX=0;entryY=0.5;entryDx=0;entryDy=0;labelBackgroundColor=none;fontColor=default;strokeColor=#182E3E;" edge="1" parent="WIyWlLk6GJQsqaUBKTNV-1" source="YErlfjkkTAqK8pvpZ7J_-5" target="YErlfjkkTAqK8pvpZ7J_-3">
          <mxGeometry width="50" height="50" relative="1" as="geometry">
            <mxPoint x="410" y="480" as="sourcePoint" />
            <mxPoint x="460" y="430" as="targetPoint" />
            <Array as="points">
              <mxPoint x="310" y="499" />
              <mxPoint x="310" y="410" />
            </Array>
          </mxGeometry>
        </mxCell>
        <mxCell id="YErlfjkkTAqK8pvpZ7J_-8" value="NO" style="edgeLabel;html=1;align=center;verticalAlign=middle;resizable=0;points=[];labelBackgroundColor=none;fontColor=#1A1A1A;" vertex="1" connectable="0" parent="YErlfjkkTAqK8pvpZ7J_-7">
          <mxGeometry x="-0.2517" relative="1" as="geometry">
            <mxPoint x="12" y="26" as="offset" />
          </mxGeometry>
        </mxCell>
        <mxCell id="YErlfjkkTAqK8pvpZ7J_-26" value="" style="edgeStyle=orthogonalEdgeStyle;rounded=0;orthogonalLoop=1;jettySize=auto;html=1;labelBackgroundColor=none;fontColor=default;strokeColor=#182E3E;" edge="1" parent="WIyWlLk6GJQsqaUBKTNV-1" source="YErlfjkkTAqK8pvpZ7J_-9" target="YErlfjkkTAqK8pvpZ7J_-25">
          <mxGeometry relative="1" as="geometry" />
        </mxCell>
        <mxCell id="YErlfjkkTAqK8pvpZ7J_-27" value="SI" style="edgeLabel;html=1;align=center;verticalAlign=middle;resizable=0;points=[];labelBackgroundColor=none;fontColor=#1A1A1A;" vertex="1" connectable="0" parent="YErlfjkkTAqK8pvpZ7J_-26">
          <mxGeometry x="-0.6178" y="-1" relative="1" as="geometry">
            <mxPoint x="10" y="-3" as="offset" />
          </mxGeometry>
        </mxCell>
        <mxCell id="YErlfjkkTAqK8pvpZ7J_-9" value="CONTADOR MEDIO = 0" style="rhombus;whiteSpace=wrap;html=1;rounded=1;rotation=0;labelBackgroundColor=none;fillColor=#F5AB50;strokeColor=#909090;fontColor=#1A1A1A;" vertex="1" parent="WIyWlLk6GJQsqaUBKTNV-1">
          <mxGeometry x="326" y="650" width="176" height="80" as="geometry" />
        </mxCell>
        <mxCell id="YErlfjkkTAqK8pvpZ7J_-11" value="" style="endArrow=classic;html=1;rounded=0;exitX=0.033;exitY=0.488;exitDx=0;exitDy=0;exitPerimeter=0;entryX=0;entryY=0.5;entryDx=0;entryDy=0;labelBackgroundColor=none;fontColor=default;strokeColor=#182E3E;" edge="1" parent="WIyWlLk6GJQsqaUBKTNV-1" source="YErlfjkkTAqK8pvpZ7J_-9" target="YErlfjkkTAqK8pvpZ7J_-1">
          <mxGeometry width="50" height="50" relative="1" as="geometry">
            <mxPoint x="410" y="630" as="sourcePoint" />
            <mxPoint x="460" y="580" as="targetPoint" />
            <Array as="points">
              <mxPoint x="280" y="690" />
              <mxPoint x="280" y="330" />
            </Array>
          </mxGeometry>
        </mxCell>
        <mxCell id="YErlfjkkTAqK8pvpZ7J_-12" value="NO" style="edgeLabel;html=1;align=center;verticalAlign=middle;resizable=0;points=[];labelBackgroundColor=none;fontColor=#1A1A1A;" vertex="1" connectable="0" parent="YErlfjkkTAqK8pvpZ7J_-11">
          <mxGeometry x="-0.1761" relative="1" as="geometry">
            <mxPoint x="36" y="137" as="offset" />
          </mxGeometry>
        </mxCell>
        <mxCell id="YErlfjkkTAqK8pvpZ7J_-32" value="" style="edgeStyle=orthogonalEdgeStyle;rounded=0;orthogonalLoop=1;jettySize=auto;html=1;labelBackgroundColor=none;fontColor=default;strokeColor=#182E3E;" edge="1" parent="WIyWlLk6GJQsqaUBKTNV-1" source="YErlfjkkTAqK8pvpZ7J_-14" target="YErlfjkkTAqK8pvpZ7J_-31">
          <mxGeometry relative="1" as="geometry" />
        </mxCell>
        <mxCell id="YErlfjkkTAqK8pvpZ7J_-35" value="SI" style="edgeLabel;html=1;align=center;verticalAlign=middle;resizable=0;points=[];labelBackgroundColor=none;fontColor=#1A1A1A;" vertex="1" connectable="0" parent="YErlfjkkTAqK8pvpZ7J_-32">
          <mxGeometry x="-0.2304" y="2" relative="1" as="geometry">
            <mxPoint x="5" y="-6" as="offset" />
          </mxGeometry>
        </mxCell>
        <mxCell id="YErlfjkkTAqK8pvpZ7J_-14" value="CONTADOR EXTERNO = 0" style="rhombus;whiteSpace=wrap;html=1;rounded=1;rotation=0;labelBackgroundColor=none;fillColor=#F5AB50;strokeColor=#909090;fontColor=#1A1A1A;" vertex="1" parent="WIyWlLk6GJQsqaUBKTNV-1">
          <mxGeometry x="326" y="841" width="176" height="80" as="geometry" />
        </mxCell>
        <mxCell id="YErlfjkkTAqK8pvpZ7J_-18" value="DECREMENTAR CONTADOR MEDIO" style="whiteSpace=wrap;html=1;rounded=1;labelBackgroundColor=none;fillColor=#F5AB50;strokeColor=#909090;fontColor=#1A1A1A;" vertex="1" parent="WIyWlLk6GJQsqaUBKTNV-1">
          <mxGeometry x="354" y="570" width="120" height="60" as="geometry" />
        </mxCell>
        <mxCell id="YErlfjkkTAqK8pvpZ7J_-20" value="" style="endArrow=classic;html=1;rounded=0;exitX=0.5;exitY=1;exitDx=0;exitDy=0;entryX=0.5;entryY=0;entryDx=0;entryDy=0;labelBackgroundColor=none;fontColor=default;strokeColor=#182E3E;" edge="1" parent="WIyWlLk6GJQsqaUBKTNV-1" source="YErlfjkkTAqK8pvpZ7J_-18" target="YErlfjkkTAqK8pvpZ7J_-9">
          <mxGeometry width="50" height="50" relative="1" as="geometry">
            <mxPoint x="400" y="560" as="sourcePoint" />
            <mxPoint x="450" y="510" as="targetPoint" />
          </mxGeometry>
        </mxCell>
        <mxCell id="YErlfjkkTAqK8pvpZ7J_-21" value="" style="endArrow=classic;html=1;rounded=0;exitX=0.5;exitY=1;exitDx=0;exitDy=0;entryX=0.5;entryY=0;entryDx=0;entryDy=0;labelBackgroundColor=none;fontColor=default;strokeColor=#182E3E;" edge="1" parent="WIyWlLk6GJQsqaUBKTNV-1" source="YErlfjkkTAqK8pvpZ7J_-1" target="YErlfjkkTAqK8pvpZ7J_-3">
          <mxGeometry width="50" height="50" relative="1" as="geometry">
            <mxPoint x="400" y="400" as="sourcePoint" />
            <mxPoint x="450" y="350" as="targetPoint" />
          </mxGeometry>
        </mxCell>
        <mxCell id="YErlfjkkTAqK8pvpZ7J_-25" value="DECREMENTAR CONTADOR EXTERNO" style="whiteSpace=wrap;html=1;rounded=1;labelBackgroundColor=none;fillColor=#F5AB50;strokeColor=#909090;fontColor=#1A1A1A;" vertex="1" parent="WIyWlLk6GJQsqaUBKTNV-1">
          <mxGeometry x="354" y="760" width="120" height="60" as="geometry" />
        </mxCell>
        <mxCell id="YErlfjkkTAqK8pvpZ7J_-28" value="" style="endArrow=classic;html=1;rounded=0;exitX=0.5;exitY=1;exitDx=0;exitDy=0;entryX=0.5;entryY=0;entryDx=0;entryDy=0;labelBackgroundColor=none;fontColor=default;strokeColor=#182E3E;" edge="1" parent="WIyWlLk6GJQsqaUBKTNV-1" source="YErlfjkkTAqK8pvpZ7J_-25" target="YErlfjkkTAqK8pvpZ7J_-14">
          <mxGeometry width="50" height="50" relative="1" as="geometry">
            <mxPoint x="400" y="870" as="sourcePoint" />
            <mxPoint x="450" y="820" as="targetPoint" />
          </mxGeometry>
        </mxCell>
        <mxCell id="YErlfjkkTAqK8pvpZ7J_-29" value="" style="endArrow=classic;html=1;rounded=0;exitX=0.022;exitY=0.503;exitDx=0;exitDy=0;exitPerimeter=0;entryX=0;entryY=0.5;entryDx=0;entryDy=0;labelBackgroundColor=none;fontColor=default;strokeColor=#182E3E;" edge="1" parent="WIyWlLk6GJQsqaUBKTNV-1" source="YErlfjkkTAqK8pvpZ7J_-14" target="YErlfjkkTAqK8pvpZ7J_-0">
          <mxGeometry width="50" height="50" relative="1" as="geometry">
            <mxPoint x="400" y="820" as="sourcePoint" />
            <mxPoint x="350" y="250" as="targetPoint" />
            <Array as="points">
              <mxPoint x="240" y="881" />
              <mxPoint x="240" y="250" />
            </Array>
          </mxGeometry>
        </mxCell>
        <mxCell id="YErlfjkkTAqK8pvpZ7J_-30" value="NO" style="edgeLabel;html=1;align=center;verticalAlign=middle;resizable=0;points=[];labelBackgroundColor=none;fontColor=#1A1A1A;" vertex="1" connectable="0" parent="YErlfjkkTAqK8pvpZ7J_-29">
          <mxGeometry x="-0.0812" y="1" relative="1" as="geometry">
            <mxPoint x="78" y="284" as="offset" />
          </mxGeometry>
        </mxCell>
        <mxCell id="YErlfjkkTAqK8pvpZ7J_-34" value="" style="edgeStyle=orthogonalEdgeStyle;rounded=0;orthogonalLoop=1;jettySize=auto;html=1;labelBackgroundColor=none;fontColor=default;strokeColor=#182E3E;" edge="1" parent="WIyWlLk6GJQsqaUBKTNV-1" source="YErlfjkkTAqK8pvpZ7J_-31" target="YErlfjkkTAqK8pvpZ7J_-33">
          <mxGeometry relative="1" as="geometry" />
        </mxCell>
        <mxCell id="YErlfjkkTAqK8pvpZ7J_-31" value="RETURN" style="whiteSpace=wrap;html=1;rounded=1;labelBackgroundColor=none;fillColor=#F5AB50;strokeColor=#909090;fontColor=#1A1A1A;" vertex="1" parent="WIyWlLk6GJQsqaUBKTNV-1">
          <mxGeometry x="354" y="953" width="120" height="60" as="geometry" />
        </mxCell>
        <mxCell id="YErlfjkkTAqK8pvpZ7J_-33" value="SALIR" style="ellipse;whiteSpace=wrap;html=1;rounded=1;labelBackgroundColor=none;fillColor=#F5AB50;strokeColor=#909090;fontColor=#1A1A1A;" vertex="1" parent="WIyWlLk6GJQsqaUBKTNV-1">
          <mxGeometry x="374" y="1040" width="80" height="80" as="geometry" />
        </mxCell>
        <mxCell id="YErlfjkkTAqK8pvpZ7J_-39" value="" style="edgeStyle=orthogonalEdgeStyle;rounded=0;orthogonalLoop=1;jettySize=auto;html=1;exitX=0.5;exitY=1;exitDx=0;exitDy=0;entryX=0.5;entryY=0;entryDx=0;entryDy=0;labelBackgroundColor=none;fontColor=default;strokeColor=#182E3E;" edge="1" parent="WIyWlLk6GJQsqaUBKTNV-1" source="YErlfjkkTAqK8pvpZ7J_-38" target="YErlfjkkTAqK8pvpZ7J_-36">
          <mxGeometry relative="1" as="geometry">
            <mxPoint x="390" y="110" as="sourcePoint" />
            <mxPoint x="440" y="110" as="targetPoint" />
          </mxGeometry>
        </mxCell>
        <mxCell id="YErlfjkkTAqK8pvpZ7J_-36" value="RESET CONTADOR EXTERNO" style="whiteSpace=wrap;html=1;rounded=1;labelBackgroundColor=none;fillColor=#F5AB50;strokeColor=#909090;fontColor=#1A1A1A;" vertex="1" parent="WIyWlLk6GJQsqaUBKTNV-1">
          <mxGeometry x="354" y="130" width="120" height="60" as="geometry" />
        </mxCell>
        <mxCell id="YErlfjkkTAqK8pvpZ7J_-38" value="INICIO" style="ellipse;whiteSpace=wrap;html=1;rounded=1;labelBackgroundColor=none;fillColor=#F5AB50;strokeColor=#909090;fontColor=#1A1A1A;" vertex="1" parent="WIyWlLk6GJQsqaUBKTNV-1">
          <mxGeometry x="374" y="20" width="80" height="80" as="geometry" />
        </mxCell>
      </root>
    </mxGraphModel>
  </diagram>
</mxfile>
